<svg xmlns="http://www.w3.org/2000/svg" xmlns:xlink="http://www.w3.org/1999/xlink" width="500" zoomAndPan="magnify" viewBox="0 0 375 374.999991" height="500" preserveAspectRatio="xMidYMid meet" version="1.0"><defs><g/><clipPath id="ef0676aabf"><path d="M 0 21 L 35 21 L 35 32.351562 L 0 32.351562 Z M 0 21 " clip-rule="nonzero"/></clipPath><clipPath id="db83f3b8b9"><path d="M 0 277.285156 L 250.5 277.285156 L 250.5 317.785156 L 0 317.785156 Z M 0 277.285156 " clip-rule="nonzero"/></clipPath></defs><rect x="-37.5" width="450" fill="#ffffff" y="-37.499999" height="449.999989" fill-opacity="1"/><rect x="-37.5" width="450" fill="#ffffff" y="-37.499999" height="449.999989" fill-opacity="1"/><rect x="-37.5" width="450" fill="#21005d" y="-37.499999" height="449.999989" fill-opacity="1"/><g fill="#ffffff" fill-opacity="1"><g transform="translate(39.452615, 205.801175)"><g><path d="M 79.171875 1.34375 C 64.566406 1.34375 51.914062 -1.921875 41.21875 -8.453125 C 30.519531 -14.984375 22.351562 -23.726562 16.71875 -34.6875 C 11.082031 -45.644531 8.265625 -57.71875 8.265625 -70.90625 C 8.265625 -84.875 11.304688 -97.363281 17.390625 -108.375 C 23.472656 -119.394531 32.023438 -128.007812 43.046875 -134.21875 C 54.066406 -140.4375 66.554688 -143.546875 80.515625 -143.546875 C 86.796875 -143.546875 92.65625 -142.875 98.09375 -141.53125 C 103.539062 -140.1875 108.054688 -138.648438 111.640625 -136.921875 C 115.234375 -135.191406 117.609375 -133.75 118.765625 -132.59375 L 109.34375 -113.375 C 101.53125 -120.300781 91.347656 -123.765625 78.796875 -123.765625 C 69.953125 -123.765625 61.941406 -121.582031 54.765625 -117.21875 C 47.585938 -112.863281 41.945312 -106.648438 37.84375 -98.578125 C 33.75 -90.515625 31.703125 -81.164062 31.703125 -70.53125 C 31.703125 -60.789062 33.523438 -51.945312 37.171875 -44 C 40.828125 -36.0625 46.175781 -29.785156 53.21875 -25.171875 C 60.269531 -20.554688 68.664062 -18.25 78.40625 -18.25 C 89.675781 -18.25 100.566406 -21.453125 111.078125 -27.859375 L 117.421875 -9.609375 C 114.597656 -7.046875 109.4375 -4.578125 101.9375 -2.203125 C 94.445312 0.160156 86.859375 1.34375 79.171875 1.34375 Z M 79.171875 1.34375 "/></g></g></g><g fill="#ffffff" fill-opacity="1"><g transform="translate(164.167492, 205.801175)"><g><path d="M 14.984375 -141.25 L 50.921875 -141.25 C 71.160156 -141.25 84.613281 -137.851562 91.28125 -131.0625 C 97.945312 -124.269531 101.28125 -116.070312 101.28125 -106.46875 C 101.28125 -100.0625 99.867188 -94.003906 97.046875 -88.296875 C 94.222656 -82.597656 89.738281 -78.34375 83.59375 -75.53125 C 92.6875 -73.21875 99.378906 -69.175781 103.671875 -63.40625 C 107.960938 -57.644531 110.109375 -50.859375 110.109375 -43.046875 C 110.109375 -34.847656 108.828125 -27.671875 106.265625 -21.515625 C 103.703125 -15.367188 98.382812 -10.242188 90.3125 -6.140625 C 82.25 -2.046875 70.59375 0 55.34375 0 L 14.984375 0 Z M 54.390625 -81.28125 C 63.484375 -81.28125 69.953125 -83.488281 73.796875 -87.90625 C 77.640625 -92.332031 79.5625 -97.941406 79.5625 -104.734375 C 79.5625 -116.898438 70.847656 -122.984375 53.421875 -122.984375 L 36.125 -122.984375 L 36.125 -81.28125 Z M 58.234375 -18.0625 C 69.890625 -18.0625 77.734375 -20.398438 81.765625 -25.078125 C 85.804688 -29.753906 87.828125 -35.679688 87.828125 -42.859375 C 87.828125 -49.648438 85.519531 -54.898438 80.90625 -58.609375 C 76.289062 -62.328125 69.304688 -64.1875 59.953125 -64.1875 L 36.125 -64.1875 L 36.125 -18.0625 Z M 58.234375 -18.0625 "/></g></g></g><path fill="#27ffef" d="M -27.824219 10.890625 L -54.707031 10.890625 L -54.707031 10.339844 L -28.050781 10.339844 L -9.234375 -8.613281 L 86.558594 -8.613281 L 86.558594 -8.0625 L -9.007812 -8.0625 Z M -27.824219 10.890625 " fill-opacity="1" fill-rule="nonzero"/><path fill="#27ffef" d="M 4.199219 5.882812 C 2.988281 5.882812 2.007812 4.890625 2.007812 3.675781 C 2.007812 2.457031 2.988281 1.464844 4.199219 1.464844 C 5.40625 1.464844 6.390625 2.457031 6.390625 3.675781 C 6.390625 4.890625 5.40625 5.882812 4.199219 5.882812 Z M 4.199219 1.742188 C 3.140625 1.742188 2.28125 2.609375 2.28125 3.675781 C 2.28125 4.738281 3.140625 5.605469 4.199219 5.605469 C 5.253906 5.605469 6.113281 4.738281 6.113281 3.675781 C 6.113281 2.609375 5.253906 1.742188 4.199219 1.742188 Z M 4.199219 1.742188 " fill-opacity="1" fill-rule="nonzero"/><path fill="#27ffef" d="M 76.15625 30.910156 C 74.875 30.910156 73.828125 29.859375 73.828125 28.566406 C 73.828125 27.273438 74.875 26.222656 76.15625 26.222656 C 77.441406 26.222656 78.484375 27.273438 78.484375 28.566406 C 78.484375 29.859375 77.441406 30.910156 76.15625 30.910156 Z M 76.15625 26.773438 C 75.175781 26.773438 74.378906 27.578125 74.378906 28.566406 C 74.378906 29.554688 75.175781 30.359375 76.15625 30.359375 C 77.140625 30.359375 77.9375 29.554688 77.9375 28.566406 C 77.9375 27.578125 77.140625 26.773438 76.15625 26.773438 Z M 76.15625 26.773438 " fill-opacity="1" fill-rule="nonzero"/><path fill="#27ffef" d="M 83.910156 12.128906 C 83.910156 12.402344 83.859375 12.664062 83.753906 12.917969 C 83.648438 13.171875 83.5 13.398438 83.308594 13.589844 C 83.117188 13.785156 82.894531 13.933594 82.640625 14.039062 C 82.390625 14.144531 82.128906 14.195312 81.855469 14.195312 C 81.582031 14.195312 81.320312 14.144531 81.070312 14.039062 C 80.816406 13.933594 80.59375 13.785156 80.402344 13.589844 C 80.210938 13.398438 80.0625 13.171875 79.957031 12.917969 C 79.851562 12.664062 79.800781 12.402344 79.800781 12.128906 C 79.800781 11.851562 79.851562 11.589844 79.957031 11.335938 C 80.0625 11.082031 80.210938 10.859375 80.402344 10.664062 C 80.59375 10.46875 80.816406 10.320312 81.070312 10.214844 C 81.320312 10.109375 81.582031 10.058594 81.855469 10.058594 C 82.128906 10.058594 82.390625 10.109375 82.640625 10.214844 C 82.894531 10.320312 83.117188 10.46875 83.308594 10.664062 C 83.5 10.859375 83.648438 11.082031 83.753906 11.335938 C 83.859375 11.589844 83.910156 11.851562 83.910156 12.128906 Z M 83.910156 12.128906 " fill-opacity="1" fill-rule="nonzero"/><path fill="#27ffef" d="M 36.304688 23.515625 C 36.304688 23.671875 36.273438 23.824219 36.214844 23.96875 C 36.15625 24.113281 36.070312 24.242188 35.960938 24.351562 C 35.851562 24.460938 35.726562 24.546875 35.582031 24.605469 C 35.4375 24.667969 35.289062 24.695312 35.132812 24.695312 C 34.980469 24.695312 34.828125 24.667969 34.6875 24.605469 C 34.542969 24.546875 34.414062 24.460938 34.304688 24.351562 C 34.195312 24.242188 34.113281 24.113281 34.050781 23.96875 C 33.992188 23.824219 33.964844 23.671875 33.964844 23.515625 C 33.964844 23.359375 33.992188 23.210938 34.050781 23.066406 C 34.113281 22.921875 34.195312 22.792969 34.304688 22.683594 C 34.414062 22.574219 34.542969 22.488281 34.6875 22.429688 C 34.828125 22.367188 34.980469 22.339844 35.132812 22.339844 C 35.289062 22.339844 35.4375 22.367188 35.582031 22.429688 C 35.726562 22.488281 35.851562 22.574219 35.960938 22.683594 C 36.070312 22.792969 36.15625 22.921875 36.214844 23.066406 C 36.273438 23.210938 36.304688 23.359375 36.304688 23.515625 Z M 36.304688 23.515625 " fill-opacity="1" fill-rule="nonzero"/><path fill="#27ffef" d="M 80.109375 12.402344 L 66.390625 12.402344 L 58 3.949219 L 6.25 3.949219 L 6.25 3.398438 L 58.226562 3.398438 L 66.617188 11.851562 L 80.109375 11.851562 Z M 80.109375 12.402344 " fill-opacity="1" fill-rule="nonzero"/><path fill="#27ffef" d="M 74.101562 28.84375 L 58.019531 28.84375 L 43.066406 13.785156 L -3.183594 13.785156 L -17.132812 -0.269531 L -16.746094 -0.660156 L -2.957031 13.230469 L 43.296875 13.230469 L 58.246094 28.289062 L 74.101562 28.289062 Z M 74.101562 28.84375 " fill-opacity="1" fill-rule="nonzero"/><g clip-path="url(#ef0676aabf)"><path fill="#27ffef" d="M 12.109375 32.335938 L -5.171875 32.335938 L -14.976562 22.460938 L -41.632812 22.460938 L -41.632812 21.90625 L -14.75 21.90625 L -4.941406 31.785156 L 11.882812 31.785156 L 20.316406 23.285156 L 34.433594 23.285156 L 34.433594 23.839844 L 20.546875 23.839844 Z M 12.109375 32.335938 " fill-opacity="1" fill-rule="nonzero"/></g><g clip-path="url(#db83f3b8b9)"><path fill="#008037" d="M 0.03125 277.285156 L 250.46875 277.285156 L 250.46875 317.785156 L 0.03125 317.785156 L 0.03125 277.285156 " fill-opacity="1" fill-rule="nonzero"/></g><g fill="#ffffff" fill-opacity="1"><g transform="translate(62.471419, 306.452812)"><g><path d="M 12.625 -21.863281 C 7.011719 -21.863281 1.726562 -17.011719 1.726562 -10.464844 C 1.726562 -4.71875 5.015625 0.332031 12.160156 0.332031 C 15.21875 0.332031 18.109375 -0.597656 20.335938 -3.289062 C 20.300781 -3.6875 20.234375 -4.417969 20.136719 -4.71875 L 19.902344 -4.816406 C 17.542969 -2.226562 15.550781 -1.363281 12.460938 -1.363281 C 8.242188 -1.363281 5.148438 -5.914062 5.148438 -11.097656 C 5.148438 -17.84375 9.4375 -20.300781 12.160156 -20.300781 C 15.152344 -20.300781 17.578125 -19.105469 18.9375 -16.382812 L 19.339844 -16.414062 C 19.4375 -18.109375 19.570312 -18.671875 19.9375 -20.101562 L 19.871094 -20.203125 C 19.871094 -20.203125 16.679688 -21.863281 12.625 -21.863281 Z M 12.625 -21.863281 "/></g></g></g><g fill="#ffffff" fill-opacity="1"><g transform="translate(84.960048, 306.452812)"><g><path d="M 1.261719 -6.8125 C 1.261719 -2.824219 3.886719 0.332031 8.308594 0.332031 C 12.691406 0.332031 15.351562 -2.757812 15.351562 -7.109375 C 15.351562 -11.628906 12.925781 -14.585938 8.441406 -14.585938 C 4.085938 -14.585938 1.261719 -11.53125 1.261719 -6.8125 Z M 8.207031 -13.257812 C 11.730469 -13.257812 12.425781 -10.53125 12.425781 -6.511719 C 12.425781 -3.324219 10.832031 -0.996094 8.605469 -0.996094 C 5.082031 -0.996094 4.1875 -4.816406 4.1875 -7.375 C 4.1875 -10.265625 5.082031 -13.257812 8.207031 -13.257812 Z M 8.207031 -13.257812 "/></g></g></g><g fill="#ffffff" fill-opacity="1"><g transform="translate(101.569085, 306.452812)"><g><path d="M 11.996094 -3.753906 C 10.765625 -2.191406 9.238281 -1.394531 7.90625 -1.394531 C 6.113281 -1.394531 4.585938 -3.191406 4.585938 -7.34375 C 4.585938 -12.328125 7.210938 -13.257812 8.839844 -13.257812 C 10.398438 -13.257812 11.199219 -12.59375 11.996094 -11.332031 Z M 11.996094 -1.925781 L 12.0625 -1.925781 L 12.226562 0 C 12.226562 0.0664062 12.328125 0.101562 12.527344 0.101562 C 12.957031 0.0664062 13.191406 0 13.65625 0 C 14.089844 0 14.71875 0.0351562 15.152344 0.101562 L 15.21875 0 C 14.953125 -1.429688 14.652344 -3.886719 14.652344 -6.378906 L 14.652344 -16.613281 C 14.652344 -19.070312 14.785156 -20.800781 14.953125 -22.859375 C 14.953125 -23.09375 14.851562 -23.191406 14.652344 -23.191406 C 13.789062 -22.859375 13.089844 -22.628906 11.761719 -22.527344 L 11.695312 -22.429688 C 11.929688 -21 11.996094 -18.539062 11.996094 -16.015625 L 11.996094 -13.855469 C 11.230469 -14.289062 9.867188 -14.585938 9.203125 -14.585938 C 4.851562 -14.585938 1.695312 -11.597656 1.695312 -7.078125 C 1.695312 -2.992188 4.121094 0.332031 7.707031 0.332031 C 9.304688 0.332031 10.796875 -0.367188 11.996094 -1.925781 Z M 11.996094 -1.925781 "/></g></g></g><g fill="#ffffff" fill-opacity="1"><g transform="translate(119.17466, 306.452812)"><g><path d="M 4.152344 -9.070312 C 4.71875 -12.527344 6.878906 -13.257812 7.941406 -13.257812 C 9.238281 -13.257812 10.730469 -12.027344 10.730469 -9.535156 C 10.730469 -9.238281 10.597656 -9.070312 10.265625 -9.070312 Z M 13.023438 -3.457031 C 11.863281 -2.191406 10.300781 -1.628906 8.472656 -1.628906 C 7.308594 -1.628906 5.75 -2.058594 4.851562 -3.523438 C 4.253906 -4.453125 4.054688 -5.78125 4.054688 -7.742188 L 13.089844 -7.742188 C 13.457031 -7.742188 13.691406 -7.941406 13.691406 -8.308594 C 13.691406 -11.097656 12.328125 -14.585938 7.941406 -14.585938 C 4.519531 -14.585938 1.128906 -11.828125 1.128906 -6.945312 C 1.128906 -5.050781 1.496094 -3.191406 2.625 -1.859375 C 3.753906 -0.464844 5.648438 0.332031 7.90625 0.332031 C 10.300781 0.332031 12.425781 -0.898438 13.691406 -2.625 Z M 13.023438 -3.457031 "/></g></g></g><g fill="#ffffff" fill-opacity="1"><g transform="translate(134.22245, 306.452812)"><g><path d="M 6.3125 -18.574219 C 6.3125 -19.671875 6.644531 -20.101562 9.335938 -20.101562 C 11.199219 -20.101562 13.554688 -19.371094 13.554688 -15.980469 C 13.554688 -13.15625 11.664062 -12.328125 8.90625 -12.328125 L 6.3125 -12.328125 Z M 6.3125 -10.898438 L 9.402344 -10.898438 C 13.289062 -10.898438 15.117188 -8.472656 15.117188 -5.484375 C 15.117188 -3.15625 14.320312 -1.328125 9.535156 -1.328125 C 7.210938 -1.328125 6.3125 -1.828125 6.3125 -2.925781 Z M 4.882812 -21.429688 C 3.753906 -21.429688 3.191406 -21.53125 3.191406 -21.53125 L 3.125 -21.429688 C 3.390625 -19.539062 3.457031 -17.277344 3.457031 -14.785156 L 3.457031 -6.644531 C 3.457031 -4.152344 3.390625 -1.792969 3.125 0 L 3.15625 0.101562 C 3.15625 0.101562 3.722656 0 4.882812 0 C 6.945312 0 7.210938 0.101562 10.167969 0.101562 C 16.78125 0.101562 18.40625 -3.257812 18.40625 -6.113281 C 18.40625 -9.304688 16.246094 -11.132812 13.355469 -11.960938 C 15.050781 -12.792969 16.449219 -14.554688 16.449219 -16.382812 C 16.449219 -18.605469 15.285156 -21.53125 9.105469 -21.53125 C 7.941406 -21.53125 6.546875 -21.429688 4.882812 -21.429688 Z M 4.882812 -21.429688 "/></g></g></g><g fill="#ffffff" fill-opacity="1"><g transform="translate(154.684772, 306.452812)"><g><path d="M 1.261719 -6.8125 C 1.261719 -2.824219 3.886719 0.332031 8.308594 0.332031 C 12.691406 0.332031 15.351562 -2.757812 15.351562 -7.109375 C 15.351562 -11.628906 12.925781 -14.585938 8.441406 -14.585938 C 4.085938 -14.585938 1.261719 -11.53125 1.261719 -6.8125 Z M 8.207031 -13.257812 C 11.730469 -13.257812 12.425781 -10.53125 12.425781 -6.511719 C 12.425781 -3.324219 10.832031 -0.996094 8.605469 -0.996094 C 5.082031 -0.996094 4.1875 -4.816406 4.1875 -7.375 C 4.1875 -10.265625 5.082031 -13.257812 8.207031 -13.257812 Z M 8.207031 -13.257812 "/></g></g></g><g fill="#ffffff" fill-opacity="1"><g transform="translate(171.293809, 306.452812)"><g><path d="M 1.261719 -6.8125 C 1.261719 -2.824219 3.886719 0.332031 8.308594 0.332031 C 12.691406 0.332031 15.351562 -2.757812 15.351562 -7.109375 C 15.351562 -11.628906 12.925781 -14.585938 8.441406 -14.585938 C 4.085938 -14.585938 1.261719 -11.53125 1.261719 -6.8125 Z M 8.207031 -13.257812 C 11.730469 -13.257812 12.425781 -10.53125 12.425781 -6.511719 C 12.425781 -3.324219 10.832031 -0.996094 8.605469 -0.996094 C 5.082031 -0.996094 4.1875 -4.816406 4.1875 -7.375 C 4.1875 -10.265625 5.082031 -13.257812 8.207031 -13.257812 Z M 8.207031 -13.257812 "/></g></g></g><g fill="#ffffff" fill-opacity="1"><g transform="translate(187.902846, 306.452812)"><g><path d="M 3.15625 -14.253906 C 2.457031 -14.253906 1.761719 -14.253906 1.363281 -14.320312 C 1.128906 -13.757812 0.929688 -13.457031 0.632812 -12.957031 L 0.796875 -12.726562 C 1.363281 -12.757812 2.390625 -12.757812 3.15625 -12.792969 L 3.15625 -8.242188 C 3.15625 -6.246094 3.058594 -3.855469 3.058594 -2.859375 C 3.058594 -0.699219 4.453125 0.332031 5.980469 0.332031 C 7.375 0.332031 8.441406 0 9.835938 -0.898438 L 9.402344 -1.695312 C 8.40625 -1.363281 7.640625 -1.328125 6.8125 -1.460938 C 6.015625 -1.5625 5.714844 -2.359375 5.714844 -4.1875 C 5.714844 -5.183594 5.816406 -6.613281 5.816406 -8.605469 L 5.816406 -12.792969 L 7.078125 -12.792969 C 7.875 -12.792969 9.003906 -12.757812 9.46875 -12.726562 C 9.570312 -13.257812 9.667969 -13.589844 9.867188 -14.089844 L 9.703125 -14.320312 C 9.105469 -14.289062 8.140625 -14.253906 7.375 -14.253906 L 5.816406 -14.253906 C 5.816406 -16.714844 5.816406 -17.179688 5.980469 -19.105469 C 5.980469 -19.339844 5.882812 -19.4375 5.683594 -19.4375 C 4.816406 -19.105469 4.417969 -18.738281 3.355469 -18.605469 L 3.289062 -18.507812 C 3.222656 -17.34375 3.15625 -16.179688 3.15625 -14.253906 Z M 3.15625 -14.253906 "/></g></g></g><g fill="#ffffff" fill-opacity="1"><g transform="translate(199.196985, 306.452812)"><g><path d="M 4.152344 -9.070312 C 4.71875 -12.527344 6.878906 -13.257812 7.941406 -13.257812 C 9.238281 -13.257812 10.730469 -12.027344 10.730469 -9.535156 C 10.730469 -9.238281 10.597656 -9.070312 10.265625 -9.070312 Z M 13.023438 -3.457031 C 11.863281 -2.191406 10.300781 -1.628906 8.472656 -1.628906 C 7.308594 -1.628906 5.75 -2.058594 4.851562 -3.523438 C 4.253906 -4.453125 4.054688 -5.78125 4.054688 -7.742188 L 13.089844 -7.742188 C 13.457031 -7.742188 13.691406 -7.941406 13.691406 -8.308594 C 13.691406 -11.097656 12.328125 -14.585938 7.941406 -14.585938 C 4.519531 -14.585938 1.128906 -11.828125 1.128906 -6.945312 C 1.128906 -5.050781 1.496094 -3.191406 2.625 -1.859375 C 3.753906 -0.464844 5.648438 0.332031 7.90625 0.332031 C 10.300781 0.332031 12.425781 -0.898438 13.691406 -2.625 Z M 13.023438 -3.457031 "/></g></g></g><g fill="#ffffff" fill-opacity="1"><g transform="translate(214.244775, 306.452812)"><g><path d="M 5.550781 -11.097656 L 5.550781 -14.121094 C 5.550781 -14.355469 5.484375 -14.453125 5.347656 -14.453125 C 4.585938 -14.289062 3.390625 -14.253906 2.65625 -14.355469 L 2.589844 -14.253906 C 2.824219 -12.792969 2.890625 -10.300781 2.890625 -7.808594 L 2.890625 -5.980469 C 2.890625 -3.488281 2.824219 -1.761719 2.589844 0 L 2.65625 0.101562 C 3.058594 0.0351562 3.820312 0 4.21875 0 C 4.617188 0 5.382812 0.0351562 5.78125 0.101562 L 5.847656 0 C 5.582031 -1.894531 5.550781 -3.457031 5.550781 -5.980469 L 5.550781 -7.707031 C 5.550781 -9.105469 5.949219 -9.902344 6.679688 -11 C 7.144531 -11.730469 7.90625 -12.160156 8.539062 -12.160156 C 9.203125 -12.160156 9.835938 -12.09375 10.265625 -11.695312 L 10.53125 -11.761719 L 11.199219 -14.222656 L 11.066406 -14.355469 C 10.5 -14.519531 10.464844 -14.585938 9.867188 -14.585938 C 8.074219 -14.585938 7.109375 -13.554688 5.648438 -11.03125 Z M 5.550781 -11.097656 "/></g></g></g><path fill="#0f8d84" d="M 336.765625 367.65625 C 336.800781 367.621094 336.796875 367.628906 336.765625 367.65625 Z M 336.628906 369.800781 C 336.074219 369.246094 336.074219 368.347656 336.628906 367.792969 C 336.492188 367.929688 336.351562 368.070312 336.628906 367.792969 C 336.695312 367.730469 336.734375 367.6875 336.757812 367.664062 C 336.726562 367.695312 336.679688 367.742188 336.628906 367.792969 C 337.1875 367.238281 338.085938 367.238281 338.640625 367.792969 C 339.199219 368.34375 339.199219 369.246094 338.640625 369.800781 C 338.085938 370.355469 337.183594 370.355469 336.628906 369.800781 Z M 339.71875 350.257812 C 340.503906 350.257812 341.140625 350.894531 341.140625 351.675781 C 341.140625 352.460938 340.503906 353.097656 339.71875 353.097656 C 338.933594 353.097656 338.296875 352.460938 338.296875 351.675781 C 338.296875 350.894531 338.933594 350.257812 339.71875 350.257812 Z M 357.652344 368.671875 L 351.261719 362.292969 L 343.894531 362.292969 L 340.15625 358.5625 L 340.15625 353.480469 C 340.96875 353.28125 341.578125 352.550781 341.578125 351.675781 C 341.578125 350.652344 340.746094 349.820312 339.71875 349.820312 C 338.695312 349.820312 337.859375 350.652344 337.859375 351.675781 C 337.859375 352.550781 338.46875 353.28125 339.28125 353.480469 L 339.28125 358.921875 L 343.097656 362.730469 L 338.605469 367.214844 C 337.886719 366.777344 336.941406 366.867188 336.320312 367.484375 C 335.597656 368.207031 335.597656 369.386719 336.320312 370.109375 C 337.046875 370.832031 338.226562 370.832031 338.949219 370.109375 C 338.859375 370.199219 338.769531 370.289062 338.746094 370.3125 C 338.761719 370.296875 338.820312 370.238281 338.949219 370.109375 C 339.3125 369.746094 339.132812 369.925781 338.949219 370.109375 C 339.570312 369.492188 339.65625 368.542969 339.222656 367.828125 L 343.894531 363.164062 L 350.902344 363.164062 L 356.777344 369.035156 L 356.777344 380.929688 L 365.339844 389.476562 L 365.339844 432.113281 L 356.273438 432.113281 C 356.082031 431.417969 355.445312 430.910156 354.691406 430.910156 C 353.785156 430.910156 353.050781 431.644531 353.050781 432.546875 C 353.050781 433.453125 353.785156 434.1875 354.691406 434.1875 C 355.445312 434.1875 356.082031 433.675781 356.273438 432.984375 L 366.210938 432.984375 L 366.210938 389.113281 L 357.652344 380.566406 L 357.652344 368.671875 " fill-opacity="1" fill-rule="nonzero"/><path fill="#0f8d84" d="M 338.746094 370.3125 L 338.742188 370.316406 " fill-opacity="1" fill-rule="nonzero"/><path fill="#27ffef" d="M 338.746094 370.3125 L 338.742188 370.316406 L 338.746094 370.3125 " fill-opacity="1" fill-rule="nonzero"/><path fill="#0f8d84" d="M 371.898438 306.386719 C 371.898438 305.605469 372.535156 304.96875 373.320312 304.96875 C 374.105469 304.96875 374.742188 305.605469 374.742188 306.386719 C 374.742188 307.171875 374.105469 307.808594 373.320312 307.808594 C 372.535156 307.808594 371.898438 307.171875 371.898438 306.386719 Z M 373.320312 304.53125 C 372.296875 304.53125 371.460938 305.363281 371.460938 306.386719 C 371.460938 307.261719 372.070312 307.992188 372.882812 308.191406 L 372.882812 332.503906 L 363.132812 342.238281 L 363.132812 358.722656 L 369.574219 365.15625 L 369.574219 435.371094 C 368.882812 435.5625 368.371094 436.195312 368.371094 436.949219 C 368.371094 437.851562 369.105469 438.585938 370.011719 438.585938 C 370.917969 438.585938 371.652344 437.851562 371.652344 436.949219 C 371.652344 436.195312 371.140625 435.5625 370.449219 435.371094 L 370.449219 364.796875 L 364.007812 358.363281 L 364.007812 342.601562 L 373.757812 332.863281 L 373.757812 308.191406 C 374.570312 307.992188 375.179688 307.261719 375.179688 306.386719 C 375.179688 305.363281 374.347656 304.53125 373.320312 304.53125 " fill-opacity="1" fill-rule="nonzero"/><path fill="#0f8d84" d="M 361.1875 363.164062 C 361.972656 363.164062 362.609375 363.800781 362.609375 364.585938 C 362.609375 365.367188 361.972656 366.003906 361.1875 366.003906 C 360.402344 366.003906 359.765625 365.367188 359.765625 364.585938 C 359.765625 363.800781 360.402344 363.164062 361.1875 363.164062 Z M 366.570312 371.496094 C 365.664062 371.496094 364.929688 372.230469 364.929688 373.132812 C 364.929688 373.886719 365.441406 374.519531 366.132812 374.710938 L 366.132812 382.164062 L 361.621094 377.660156 L 361.621094 366.386719 C 362.4375 366.191406 363.046875 365.457031 363.046875 364.585938 C 363.046875 363.5625 362.210938 362.730469 361.1875 362.730469 C 360.164062 362.730469 359.328125 363.5625 359.328125 364.585938 C 359.328125 365.457031 359.9375 366.191406 360.75 366.386719 L 360.75 378.019531 L 367.007812 384.265625 L 367.007812 374.710938 C 367.699219 374.519531 368.210938 373.886719 368.210938 373.132812 C 368.210938 372.230469 367.476562 371.496094 366.570312 371.496094 " fill-opacity="1" fill-rule="nonzero"/><path fill="#0f8d84" d="M 361.550781 322.058594 C 361.550781 322.84375 360.910156 323.480469 360.128906 323.480469 C 359.34375 323.480469 358.703125 322.84375 358.703125 322.058594 C 358.703125 321.277344 359.34375 320.640625 360.128906 320.640625 C 360.910156 320.640625 361.550781 321.277344 361.550781 322.058594 Z M 360.128906 323.917969 C 361.152344 323.917969 361.988281 323.085938 361.988281 322.058594 C 361.988281 321.1875 361.378906 320.457031 360.5625 320.257812 L 360.5625 311.585938 L 363 309.152344 L 363 325.152344 L 365.917969 328.066406 C 365.566406 328.691406 365.648438 329.496094 366.179688 330.03125 C 366.820312 330.667969 367.859375 330.667969 368.5 330.03125 C 369.140625 329.390625 369.140625 328.351562 368.5 327.710938 C 367.96875 327.179688 367.160156 327.097656 366.535156 327.453125 L 363.875 324.792969 L 363.875 307.050781 L 359.691406 311.222656 L 359.691406 320.257812 C 358.878906 320.457031 358.269531 321.1875 358.269531 322.058594 C 358.269531 323.085938 359.101562 323.917969 360.128906 323.917969 " fill-opacity="1" fill-rule="nonzero"/><path fill="#0f8d84" d="M 354.566406 300.304688 C 355.351562 300.304688 355.992188 300.941406 355.992188 301.722656 C 355.992188 302.507812 355.351562 303.144531 354.566406 303.144531 C 353.785156 303.144531 353.144531 302.507812 353.144531 301.722656 C 353.144531 300.941406 353.785156 300.304688 354.566406 300.304688 Z M 341.644531 321.648438 C 342.175781 321.113281 342.257812 320.308594 341.90625 319.683594 L 345.128906 316.464844 L 349.84375 316.464844 L 354.132812 320.75 L 354.132812 325.769531 L 359.691406 331.320312 L 359.691406 348.191406 C 358.996094 348.382812 358.488281 349.015625 358.488281 349.769531 C 358.488281 350.671875 359.222656 351.40625 360.128906 351.40625 C 361.035156 351.40625 361.769531 350.671875 361.769531 349.769531 C 361.769531 349.015625 361.257812 348.382812 360.5625 348.191406 L 360.5625 330.960938 L 355.003906 325.410156 L 355.003906 303.527344 C 355.820312 303.328125 356.425781 302.597656 356.425781 301.722656 C 356.425781 300.699219 355.59375 299.867188 354.566406 299.867188 C 353.542969 299.867188 352.707031 300.699219 352.707031 301.722656 C 352.707031 302.597656 353.316406 303.328125 354.132812 303.527344 L 354.132812 319.515625 L 350.203125 315.59375 L 344.765625 315.59375 L 341.289062 319.070312 C 340.660156 318.714844 339.855469 318.800781 339.324219 319.332031 C 338.683594 319.96875 338.683594 321.007812 339.324219 321.648438 C 339.964844 322.289062 341.003906 322.289062 341.644531 321.648438 " fill-opacity="1" fill-rule="nonzero"/><path fill="#0f8d84" d="M 320.378906 316.464844 C 321.164062 316.464844 321.804688 317.101562 321.804688 317.886719 C 321.804688 318.667969 321.164062 319.304688 320.378906 319.304688 C 319.597656 319.304688 318.957031 318.667969 318.957031 317.886719 C 318.957031 317.101562 319.597656 316.464844 320.378906 316.464844 Z M 356.949219 363.128906 C 356.164062 363.128906 355.527344 362.492188 355.527344 361.710938 C 355.527344 360.925781 356.164062 360.289062 356.949219 360.289062 C 357.734375 360.289062 358.375 360.925781 358.375 361.710938 C 358.375 362.492188 357.734375 363.128906 356.949219 363.128906 Z M 319.945312 319.6875 L 319.945312 333.910156 L 330.144531 344.09375 L 330.269531 344.222656 L 344.726562 344.222656 L 356.515625 355.988281 L 356.515625 359.910156 C 355.699219 360.105469 355.09375 360.835938 355.09375 361.710938 C 355.09375 362.734375 355.925781 363.566406 356.949219 363.566406 C 357.976562 363.566406 358.808594 362.734375 358.808594 361.710938 C 358.808594 360.835938 358.203125 360.105469 357.386719 359.910156 L 357.386719 338.011719 L 352.277344 332.910156 L 343.71875 332.910156 L 336.515625 325.71875 L 336.515625 319.027344 C 337.210938 318.835938 337.71875 318.203125 337.71875 317.449219 C 337.71875 316.542969 336.984375 315.808594 336.078125 315.808594 C 335.171875 315.808594 334.4375 316.542969 334.4375 317.449219 C 334.4375 318.203125 334.949219 318.835938 335.644531 319.027344 L 335.644531 326.078125 L 343.355469 333.78125 L 351.914062 333.78125 L 356.515625 338.371094 L 356.515625 354.757812 L 345.21875 343.476562 L 345.089844 343.347656 L 330.632812 343.347656 L 320.816406 333.550781 L 320.816406 319.6875 C 321.632812 319.492188 322.238281 318.757812 322.238281 317.886719 C 322.238281 316.863281 321.40625 316.03125 320.378906 316.03125 C 319.355469 316.03125 318.523438 316.863281 318.523438 317.886719 C 318.523438 318.757812 319.128906 319.492188 319.945312 319.6875 " fill-opacity="1" fill-rule="nonzero"/></svg>